<?xml version="1.0" encoding="UTF-8"?>
<svg width="41px" height="33px" viewBox="0 0 41 33" version="1.1" xmlns="http://www.w3.org/2000/svg" xmlns:xlink="http://www.w3.org/1999/xlink">
    <!-- Generator: Sketch 57.1 (83088) - https://sketch.com -->
    <title>02n</title>
    <desc>Created with Sketch.</desc>
    <defs>
        <linearGradient x1="100%" y1="24.4627002%" x2="0%" y2="75.5372998%" id="linearGradient-1">
            <stop stop-color="#F5F6F8" offset="0%"></stop>
            <stop stop-color="#DFE3E8" offset="100%"></stop>
        </linearGradient>
        <linearGradient x1="18.8371844%" y1="78.5134481%" x2="79.402145%" y2="35.2543785%" id="linearGradient-2">
            <stop stop-color="#FFFFFF" stop-opacity="0.7" offset="1%"></stop>
            <stop stop-color="#FFFFFF" offset="100%"></stop>
        </linearGradient>
    </defs>
    <g id="Page-1" stroke="none" stroke-width="1" fill="none" fill-rule="evenodd">
        <g id="Mobile" transform="translate(-252.000000, -51.000000)" fill-rule="nonzero">
            <g id="02n" transform="translate(251.000000, 51.000000)">
                <path d="M40.5100252,22.69 C40.5100252,28.166322 36.1059277,32.6242842 30.63,32.691033 L10.88,32.691033 C5.98575033,32.7256065 1.81087763,29.1552481 1.08668767,24.3147423 C0.36249771,19.4742365 3.30963121,14.838352 8,13.44 C8.5081948,8.37920859 12.7341862,4.50610042 17.82,4.44 C22.6785077,4.35845113 26.8508074,7.87736097 27.59,12.68 L30.66,12.68 C36.1280761,12.762027 40.5160839,17.2213121 40.5100252,22.69 Z" id="path-2" fill="url(#linearGradient-1)"></path>
                <path d="M42,13.39 C39.9869214,17.0897255 35.8496906,19.1064409 31.6952024,18.4131291 C27.5407141,17.7198173 24.2825529,14.4689397 23.5799453,10.3160134 C22.8773376,6.16308717 24.884789,2.02135341 28.58,0 C26.9355087,3.06147891 27.0185173,6.76143373 28.7986535,9.74608104 C30.5787898,12.7307284 33.7948106,14.5620575 37.27,14.57 C38.9202231,14.5758085 40.5458772,14.1702542 42,13.39 Z" id="path-4" fill="#B6B9BD"></path>
                <path d="M28.1700344,26.71 C28.1756092,30.0965411 25.4464342,32.8525164 22.06,32.8802889 L9.85,32.8802889 C8.23494429,32.8879823 6.68329781,32.2519918 5.5384553,31.1127797 C4.39361279,29.9735675 3.74979742,28.4250754 3.74979742,26.81 C3.74328943,25.1941061 4.38864332,23.6438147 5.54,22.51 C6.24543697,21.8101665 7.11018792,21.2920022 8.06,21 C8.37980928,17.87671 10.9906284,15.4895525 14.13,15.45 C17.1218602,15.4161769 19.6813835,17.5917717 20.13,20.55 L22.03,20.55 C25.424261,20.5610204 28.1700344,23.3157211 28.1700344,26.71 L28.1700344,26.71 Z" id="Path" fill="url(#linearGradient-2)"></path>
            </g>
        </g>
    </g>
</svg>