<?xml version="1.0" encoding="UTF-8"?>
<svg width="40px" height="29px" viewBox="0 0 40 29" version="1.1" xmlns="http://www.w3.org/2000/svg" xmlns:xlink="http://www.w3.org/1999/xlink">
    <!-- Generator: Sketch 57.1 (83088) - https://sketch.com -->
    <title>04n</title>
    <desc>Created with Sketch.</desc>
    <defs>
        <linearGradient x1="100%" y1="24.4138914%" x2="0%" y2="75.5861086%" id="linearGradient-1">
            <stop stop-color="#F5F6F8" offset="0%"></stop>
            <stop stop-color="#DFE3E8" offset="100%"></stop>
        </linearGradient>
    </defs>
    <g id="Page-1" stroke="none" stroke-width="1" fill="none" fill-rule="evenodd">
        <g id="Mobile" transform="translate(-327.000000, -12.000000)" fill-rule="nonzero">
            <g id="04n" transform="translate(327.000000, 11.000000)">
                <path d="M39.51,19.23 C39.51,24.706322 35.1059277,29.1642842 29.63,29.230003 L9.88,29.230003 C5.0116506,29.2321958 0.875059742,25.6706161 0.153988414,20.8559627 C-0.567082914,16.0413094 2.34460897,11.4241366 7,10 C7.5081948,4.93920859 11.7341862,1.06610042 16.82,1 C21.6785077,0.918451133 25.8508074,4.43736097 26.59,9.24 L29.66,9.24 C35.1202895,9.32191141 39.5051535,13.7690983 39.51,19.23 Z" id="path-2" fill="url(#linearGradient-1)"></path>
                <path d="M28,23.25 C28,26.6343023 25.2741423,29.3870894 21.89,29.4202186 L9.65,29.4202186 C8.03494429,29.4279823 6.48329781,28.7919918 5.3384553,27.6527797 C4.19361279,26.5135675 3.55,24.9650754 3.55,23.35 C3.56146045,20.6769226 5.306472,18.3205497 7.86,17.53 C8.18925903,14.4146187 10.7975031,12.0384095 13.93,12 C16.9218602,11.9661769 19.4813835,14.1417717 19.93,17.1 L21.83,17.1 C25.2298017,17.0999821 27.9889796,19.8502162 28,23.25 Z" id="Path" fill="#6D737B"></path>
            </g>
        </g>
    </g>
</svg>