<?xml version="1.0" encoding="UTF-8"?>
<svg width="40px" height="40px" viewBox="0 0 40 40" version="1.1" xmlns="http://www.w3.org/2000/svg" xmlns:xlink="http://www.w3.org/1999/xlink">
    <!-- Generator: Sketch 57.1 (83088) - https://sketch.com -->
    <title>09d</title>
    <desc>Created with Sketch.</desc>
    <defs>
        <linearGradient x1="100%" y1="24.4138914%" x2="0%" y2="75.5861086%" id="linearGradient-1">
            <stop stop-color="#F5F6F8" offset="0%"></stop>
            <stop stop-color="#DFE3E8" offset="100%"></stop>
        </linearGradient>
    </defs>
    <g id="Page-1" stroke="none" stroke-width="1" fill="none" fill-rule="evenodd">
        <g id="Mobile" transform="translate(-275.000000, -10.000000)" fill-rule="nonzero">
            <g id="09d" transform="translate(275.000000, 9.000000)">
                <path d="M39.51,19.23 C39.51,24.706322 35.1059277,29.1642842 29.63,29.230003 L9.88,29.230003 C5.0116506,29.2321958 0.875059742,25.6706161 0.153988414,20.8559627 C-0.567082914,16.0413094 2.34460897,11.4241366 7,10 C7.5081948,4.93920859 11.7341862,1.06610042 16.82,1 C21.6785077,0.918451133 25.8508074,4.43736097 26.59,9.24 L29.66,9.24 C35.1202895,9.32191141 39.5051535,13.7690983 39.51,19.23 Z" id="path-2" fill="url(#linearGradient-1)"></path>
                <path d="M28,23.25 C28,26.6343023 25.2741423,29.3870894 21.89,29.4202186 L9.65,29.4202186 C8.03494429,29.4279823 6.48329781,28.7919918 5.3384553,27.6527797 C4.19361279,26.5135675 3.55,24.9650754 3.55,23.35 C3.56146045,20.6769226 5.306472,18.3205497 7.86,17.53 C8.18925903,14.4146187 10.7975031,12.0384095 13.93,12 C16.9218602,11.9661769 19.4813835,14.1417717 19.93,17.1 L21.83,17.1 C25.2298017,17.0999821 27.9889796,19.8502162 28,23.25 Z" id="Path" fill="#6D737B"></path>
                <path d="M11,37.17 C10.4785093,37.8601042 9.50101555,38.0067282 8.8,37.5 C8.24998534,36.829319 8.33897101,35.841578 9,35.28 C9.74249625,34.7253746 10.584318,34.3180415 11.48,34.08 C11.6297621,34.0193153 11.8010581,34.0499302 11.9205284,34.1587335 C12.0399987,34.2675369 12.0864543,34.4352314 12.04,34.59 C11.8588485,35.5078041 11.5059991,36.3831422 11,37.17 L11,37.17 Z" id="Path" fill="#3083DC" opacity="0.9"></path>
                <path d="M28,35.56 C27.6967798,36.0517621 27.1290109,36.3146956 26.5578433,36.2278621 C25.9866758,36.1410285 25.5226997,35.7212406 25.3793249,35.1615835 C25.2359501,34.6019264 25.440937,34.0107614 25.9,33.66 C26.6484867,33.1091883 27.4928229,32.7022792 28.39,32.46 C28.5397621,32.3993153 28.7110581,32.4299302 28.8305284,32.5387335 C28.9499987,32.6475369 28.9964543,32.8152314 28.95,32.97 C28.7964286,33.8847071 28.4742989,34.7629342 28,35.56 L28,35.56 Z" id="Path" fill="#3083DC" opacity="0.9"></path>
                <path d="M20,40.42 C19.7995477,40.7810596 19.3977666,40.9817609 18.98869,40.9251786 C18.5796135,40.8685964 18.2473958,40.5663705 18.1524758,40.1644559 C18.0575557,39.7625413 18.2194601,39.3436189 18.56,39.11 C19.073442,38.7294288 19.653356,38.4479501 20.27,38.28 C20.3733212,38.2367492 20.4923125,38.256866 20.575674,38.3316776 C20.6590354,38.4064891 20.6918615,38.5226187 20.66,38.63 C20.5534011,39.2625641 20.3295611,39.8696454 20,40.42 Z" id="Path" fill="#3083DC" opacity="0.9"></path>
                <path d="M18.73,35.43 C18.2833841,36.0184367 17.4487076,36.1427503 16.85,35.71 C16.3518352,35.1561331 16.3919612,34.3045694 16.94,33.8 C17.5833635,33.3400527 18.3051518,33.0011849 19.07,32.8 C19.1989617,32.7472947 19.3467566,32.773729 19.4494541,32.8678683 C19.5521515,32.9620076 19.5913135,33.1069505 19.55,33.24 C19.4145994,34.0144687 19.1365522,34.7570583 18.73,35.43 L18.73,35.43 Z" id="Path" fill="#3083DC" opacity="0.9"></path>
            </g>
        </g>
    </g>
</svg>