<?xml version="1.0" encoding="UTF-8"?>
<svg width="40px" height="45px" viewBox="0 0 40 45" version="1.1" xmlns="http://www.w3.org/2000/svg" xmlns:xlink="http://www.w3.org/1999/xlink">
    <!-- Generator: Sketch 57.1 (83088) - https://sketch.com -->
    <title>10d</title>
    <desc>Created with Sketch.</desc>
    <defs>
        <linearGradient x1="100%" y1="24.4631487%" x2="0%" y2="75.5368513%" id="linearGradient-1">
            <stop stop-color="#F5F6F8" offset="0%"></stop>
            <stop stop-color="#DFE3E8" offset="100%"></stop>
        </linearGradient>
        <linearGradient x1="18.7434006%" y1="78.52791%" x2="79.2866258%" y2="35.2720826%" id="linearGradient-2">
            <stop stop-color="#FFFFFF" stop-opacity="0.7" offset="1%"></stop>
            <stop stop-color="#FFFFFF" offset="100%"></stop>
        </linearGradient>
    </defs>
    <g id="Page-1" stroke="none" stroke-width="1" fill="none" fill-rule="evenodd">
        <g id="Mobile" transform="translate(-262.000000, -6.000000)" fill-rule="nonzero">
            <g id="10d" transform="translate(261.000000, 6.000000)">
                <circle id="Oval" fill="#F4D35E" cx="29.54" cy="10.58" r="9.88"></circle>
                <path d="M40.5100189,22.17 C40.5100189,27.646322 36.1059277,32.1042842 30.63,32.1707804 L10.88,32.1707804 C5.98575033,32.2056065 1.81087763,28.6352481 1.08668767,23.7947423 C0.36249771,18.9542365 3.30963121,14.318352 8,12.92 C8.5081948,7.85920859 12.7341862,3.98610042 17.82,3.92 C22.6785077,3.83845113 26.8508074,7.35736097 27.59,12.16 L30.66,12.16 C36.1280761,12.242027 40.5160839,16.7013121 40.5100189,22.17 Z" id="path-2" fill="url(#linearGradient-1)"></path>
                <path d="M29.0001026,26.19 C29.0001026,29.5743023 26.2741423,32.3270894 22.89,32.36 L10.65,32.36 C7.64231075,32.3591441 5.08723229,30.1592989 4.63948021,27.1851245 C4.19172813,24.2109501 5.98587566,21.3563434 8.86,20.47 C9.17980928,17.34671 11.7906284,14.9595525 14.93,14.92 C17.9417317,14.8493569 20.5389025,17.0229364 21,20 L22.9,20 C26.2880364,20.038422 29.0112009,22.8017642 29.0001026,26.19 Z" id="Path" fill="url(#linearGradient-2)"></path>
                <path d="M13.11,40.63 C12.585485,41.3168085 11.6084398,41.4589241 10.91,40.95 C10.3267809,40.3102947 10.3669119,39.3203955 11,38.73 C11.7448726,38.1792955 12.5859178,37.7723381 13.48,37.53 C13.6297621,37.4693153 13.8010581,37.4999302 13.9205284,37.6087335 C14.0399987,37.7175369 14.0864543,37.8852314 14.04,38.04 C13.8926208,38.9533614 13.5772997,39.8315136 13.11,40.63 L13.11,40.63 Z" id="Path" fill="#3083DC" opacity="0.9"></path>
                <path d="M30,39 C29.6967798,39.4917621 29.1290109,39.7546956 28.5578433,39.6678621 C27.9866758,39.5810285 27.5226997,39.1612406 27.3793249,38.6015835 C27.2359501,38.0419264 27.440937,37.4507614 27.9,37.1 C28.645952,36.5510836 29.4866501,36.1442942 30.38,35.9 C30.5307988,35.8336161 30.7064844,35.8615369 30.8292732,35.9714005 C30.952062,36.0812642 30.9992715,36.2527759 30.95,36.41 C30.7918327,37.3234834 30.4700018,38.200896 30,39 L30,39 Z" id="Path" fill="#3083DC" opacity="0.9"></path>
                <path d="M22,43.87 C21.7995477,44.2310596 21.3977666,44.4317609 20.98869,44.3751786 C20.5796135,44.3185964 20.2473958,44.0163705 20.1524758,43.6144559 C20.0575557,43.2125413 20.2194601,42.7936189 20.56,42.56 C21.0723243,42.1775881 21.6526013,41.8959332 22.27,41.73 C22.3726038,41.6829075 22.4934521,41.7020402 22.5764913,41.7785237 C22.6595306,41.8550072 22.6885148,41.9738781 22.65,42.08 C22.5483425,42.7123673 22.3277858,43.3197464 22,43.87 Z" id="Path" fill="#3083DC" opacity="0.9"></path>
                <path d="M20.8,38.88 C20.3533841,39.4684367 19.5187076,39.5927503 18.92,39.16 C18.4229717,38.609476 18.463159,37.7610776 19.01,37.26 C19.647037,36.7893465 20.3709559,36.4494785 21.14,36.26 C21.2671581,36.2002652 21.4177112,36.2223525 21.5223531,36.3160942 C21.626995,36.4098359 21.6654439,36.5570628 21.62,36.69 C21.4845994,37.4644687 21.2065522,38.2070583 20.8,38.88 L20.8,38.88 Z" id="Path" fill="#3083DC" opacity="0.9"></path>
            </g>
        </g>
    </g>
</svg>