<?xml version="1.0" encoding="UTF-8"?>
<svg width="40px" height="39px" viewBox="0 0 40 39" version="1.1" xmlns="http://www.w3.org/2000/svg" xmlns:xlink="http://www.w3.org/1999/xlink">
    <!-- Generator: Sketch 57.1 (83088) - https://sketch.com -->
    <title>11d</title>
    <desc>Created with Sketch.</desc>
    <defs>
        <linearGradient x1="100%" y1="24.4138914%" x2="0%" y2="75.5861086%" id="linearGradient-1">
            <stop stop-color="#F5F6F8" offset="0%"></stop>
            <stop stop-color="#DFE3E8" offset="100%"></stop>
        </linearGradient>
        <linearGradient x1="18.8371844%" y1="78.4824835%" x2="79.402145%" y2="35.248232%" id="linearGradient-2">
            <stop stop-color="#FFFFFF" stop-opacity="0.7" offset="1%"></stop>
            <stop stop-color="#FFFFFF" offset="100%"></stop>
        </linearGradient>
    </defs>
    <g id="Page-1" stroke="none" stroke-width="1" fill="none" fill-rule="evenodd">
        <g id="Mobile" transform="translate(-292.000000, -8.000000)" fill-rule="nonzero">
            <g id="11d" transform="translate(292.000000, 7.000000)">
                <path d="M15.92,26.31 L11.68,32.31 C11.476486,32.5907056 11.4480707,32.9619887 11.6064984,33.2703947 C11.7649261,33.5788006 12.0832872,33.7719452 12.43,33.77 L12.43,33.77 C12.7669809,33.7658271 13.079274,33.9462362 13.2440002,34.240241 C13.4087263,34.5342459 13.3995186,34.8947867 13.22,35.18 L11,38.84 C10.9143959,38.9421727 10.9278273,39.0943959 11.03,39.18 C11.1321727,39.2656041 11.2843959,39.2521727 11.37,39.15 L18.55,32.73 C18.8157944,32.4938553 18.923692,32.1268337 18.8279847,31.7844142 C18.7322774,31.4419948 18.4497159,31.1841076 18.1,31.12 L18.1,31.12 C17.8000095,31.0662866 17.546087,30.8674995 17.4219403,30.5891705 C17.2977935,30.3108415 17.319536,29.989096 17.48,29.73 L18.94,27.33 C19.1195186,27.0447867 19.1287263,26.6842459 18.9640002,26.390241 C18.799274,26.0962362 18.4869809,25.9158271 18.15,25.9197944 L16.67,25.9197944 C16.3707027,25.9171996 16.0895962,26.063375 15.92,26.31 L15.92,26.31 Z" id="Path" fill="#3083DC" opacity="0.9"></path>
                <path d="M39.51,19.23 C39.51,24.706322 35.1059277,29.1642842 29.63,29.230003 L9.88,29.230003 C5.0116506,29.2321958 0.875059742,25.6706161 0.153988414,20.8559627 C-0.567082914,16.0413094 2.34460897,11.4241366 7,10 C7.5081948,4.93920859 11.7341862,1.06610042 16.82,1 C21.6785077,0.918451133 25.8508074,4.43736097 26.59,9.24 L29.66,9.24 C35.1202895,9.32191141 39.5051535,13.7690983 39.51,19.23 Z" id="path-2" fill="url(#linearGradient-1)"></path>
                <path d="M27.1700258,23.25 C27.1756092,26.6365411 24.4464342,29.3925164 21.06,29.4202186 L8.85,29.4202186 C7.23494429,29.4279823 5.68329781,28.7919918 4.5384553,27.6527797 C3.39361279,26.5135675 2.74984691,24.9650754 2.74984691,23.35 C2.74328943,21.7341061 3.38864332,20.1838147 4.54,19.05 C5.24436084,18.3465409 6.1092013,17.8248911 7.06,17.53 C7.38925903,14.4146187 9.99750311,12.0384095 13.13,12 C16.1218602,11.9661769 18.6813835,14.1417717 19.13,17.1 L21.03,17.1 C24.4203622,17.1110033 27.164514,19.8596244 27.1700258,23.25 L27.1700258,23.25 Z" id="Path" fill="url(#linearGradient-2)"></path>
            </g>
        </g>
    </g>
</svg>