<?xml version="1.0" encoding="UTF-8"?>
<svg width="40px" height="38px" viewBox="0 0 40 38" version="1.1" xmlns="http://www.w3.org/2000/svg" xmlns:xlink="http://www.w3.org/1999/xlink">
    <!-- Generator: Sketch 57.1 (83088) - https://sketch.com -->
    <title>50d</title>
    <desc>Created with Sketch.</desc>
    <defs>
        <linearGradient x1="100%" y1="24.4138896%" x2="0%" y2="75.5861104%" id="linearGradient-1">
            <stop stop-color="#F5F6F8" offset="0%"></stop>
            <stop stop-color="#DFE3E8" offset="100%"></stop>
        </linearGradient>
        <linearGradient x1="18.8371844%" y1="78.4824835%" x2="79.402145%" y2="35.248232%" id="linearGradient-2">
            <stop stop-color="#FFFFFF" stop-opacity="0.7" offset="1%"></stop>
            <stop stop-color="#FFFFFF" offset="100%"></stop>
        </linearGradient>
        <linearGradient x1="100%" y1="48.5895536%" x2="0%" y2="51.4104464%" id="linearGradient-3">
            <stop stop-color="#F5F6F8" offset="0%"></stop>
            <stop stop-color="#DFE3E8" offset="100%"></stop>
        </linearGradient>
        <linearGradient x1="100%" y1="48.3584657%" x2="0%" y2="51.6415343%" id="linearGradient-4">
            <stop stop-color="#F5F6F8" offset="0%"></stop>
            <stop stop-color="#DFE3E8" offset="100%"></stop>
        </linearGradient>
    </defs>
    <g id="Page-1" stroke="none" stroke-width="1" fill="none" fill-rule="evenodd">
        <g id="Mobile" transform="translate(-277.000000, -2.000000)" fill-rule="nonzero">
            <g id="50d" transform="translate(277.000000, 1.000000)">
                <path d="M39.51,19.23 C39.51,24.706322 35.1059277,29.1642842 29.63,29.230004 L9.88,29.230004 C5.0116506,29.2321958 0.875059742,25.6706161 0.153988414,20.8559627 C-0.567082914,16.0413094 2.34460897,11.4241366 7,10 C7.5081948,4.93920859 11.7341862,1.06610042 16.82,1 C21.6785077,0.918451133 25.8508074,4.43736097 26.59,9.24 L29.66,9.24 C35.1202895,9.32191141 39.5051535,13.7690983 39.51,19.23 Z" id="path-2" fill="url(#linearGradient-1)"></path>
                <path d="M27.1700344,23.25 C27.1756092,26.6365411 24.4464342,29.3925164 21.06,29.4202889 L8.85,29.4202889 C7.23494429,29.4279823 5.68329781,28.7919918 4.5384553,27.6527797 C3.39361279,26.5135675 2.74979742,24.9650754 2.74979742,23.35 C2.74328943,21.7341061 3.38864332,20.1838147 4.54,19.05 C5.24436084,18.3465409 6.1092013,17.8248911 7.06,17.53 C7.38925903,14.4146187 9.99750311,12.0384095 13.13,12 C16.1218602,11.9661769 18.6813835,14.1417717 19.13,17.1 L21.03,17.1 C24.4203622,17.1110033 27.164514,19.8596244 27.1700344,23.25 L27.1700344,23.25 Z" id="Path" fill="url(#linearGradient-2)"></path>
                <path d="M9.25,33.5 L9.96,33.5 C10.41,33.5 11.05,33.5 11.79,33.41 C12.53,33.32 13.4,33.29 14.29,33.15 C14.74,33.08 15.19,32.99 15.64,32.89 C16.09,32.79 16.54,32.64 16.98,32.48 L17.74,32.24 C18.03,32.17 18.33,32.12 18.61,32.08 C19.1452555,32.0249615 19.6847445,32.0249615 20.22,32.08 C21.1374851,32.1880468 22.0319723,32.4412035 22.87,32.83 C23.4604625,33.1033408 24.0202616,33.4385499 24.54,33.83 C24.7362031,33.9749396 24.9232288,34.1319075 25.1,34.3 L24.4,34.15 C23.96,34.06 23.34,33.94 22.61,33.84 C21.7965589,33.712085 20.9731571,33.6585304 20.15,33.68 C19.93,33.68 19.71,33.68 19.49,33.68 C19.27,33.68 19.05,33.74 18.83,33.77 C18.61,33.8 18.43,33.87 18.22,33.9 L17.54,34.13 C17.27,34.22 17.01,34.31 16.75,34.38 C16.49,34.45 16.22,34.51 15.95,34.56 C15.4375647,34.6453883 14.9194421,34.6921865 14.4,34.7 C13.4982862,34.710807 12.5985298,34.6134453 11.72,34.41 C11.0984317,34.2669868 10.4897053,34.072997 9.9,33.83 C9.67647916,33.7340563 9.45936389,33.6238286 9.25,33.5 Z" id="path-5" fill="url(#linearGradient-3)"></path>
                <path d="M34.32,37.48 L33.61,37.42 C33.16,37.42 32.53,37.34 31.79,37.26 C31.05,37.18 30.19,37.08 29.3,36.91 C28.85,36.82 28.4,36.72 27.96,36.59 C27.52,36.46 27.07,36.31 26.64,36.14 L25.88,35.87 C25.6,35.79 25.3,35.73 25.02,35.68 C24.4905253,35.6009069 23.9539113,35.5807838 23.42,35.62 C21.8347421,35.7404812 20.3096874,36.2787358 19,37.18 C18.7929165,37.3194831 18.5957751,37.4731866 18.41,37.64 L19.12,37.51 C19.56,37.44 20.18,37.33 20.92,37.26 C21.7370194,37.173373 22.5597289,37.1533069 23.38,37.2 L24.04,37.26 L24.7,37.38 L25.3,37.54 L25.98,37.79 C26.24,37.88 26.49,37.99 26.76,38.07 C27.03,38.15 27.28,38.22 27.54,38.27 C28.0503272,38.3789461 28.568733,38.4458371 29.09,38.47 C29.9905971,38.5127911 30.8931331,38.4523983 31.78,38.29 C32.4078845,38.1730424 33.0237757,37.9989862 33.62,37.77 C33.8602531,37.6909636 34.0942423,37.5940253 34.32,37.48 Z" id="path-7" fill="url(#linearGradient-4)"></path>
            </g>
        </g>
    </g>
</svg>