<?xml version="1.0" encoding="UTF-8"?>
<svg width="50px" height="41px" viewBox="0 0 50 41" version="1.1" xmlns="http://www.w3.org/2000/svg" xmlns:xlink="http://www.w3.org/1999/xlink">
    <!-- Generator: Sketch 57.1 (83088) - https://sketch.com -->
    <title>rainsun</title>
    <desc>Created with Sketch.</desc>
    <defs>
        <linearGradient x1="18.8766159%" y1="78.5363184%" x2="79.4345652%" y2="35.2588318%" id="linearGradient-1">
            <stop stop-color="#FFFFFF" stop-opacity="0.7" offset="1%"></stop>
            <stop stop-color="#FFFFFF" offset="100%"></stop>
        </linearGradient>
        <path d="M35.5697616,19.4663415 C35.5697616,24.2748193 31.7027658,28.1891275 26.8946341,28.2470611 L9.55317073,28.2470611 C5.25578077,28.2780935 1.5900389,25.1431447 0.954164785,20.8929445 C0.318290672,16.6427442 2.90601765,12.5722115 7.02439024,11.3443902 C7.47061007,6.90076852 11.1812366,3.49999061 15.6468293,3.44195122 C19.912836,3.37034734 23.5763187,6.46012183 24.2253659,10.6770732 L26.9209756,10.6770732 C31.7222132,10.7490969 35.5750981,14.6645667 35.5697616,19.4663415 Z" id="path-2"></path>
        <filter x="-37.5%" y="-44.3%" width="174.9%" height="204.8%" filterUnits="objectBoundingBox" id="filter-3">
            <feOffset dx="0" dy="2" in="SourceAlpha" result="shadowOffsetOuter1"></feOffset>
            <feGaussianBlur stdDeviation="4" in="shadowOffsetOuter1" result="shadowBlurOuter1"></feGaussianBlur>
            <feColorMatrix values="0 0 0 0 0   0 0 0 0 0   0 0 0 0 0  0 0 0 0.2 0" type="matrix" in="shadowBlurOuter1"></feColorMatrix>
        </filter>
        <linearGradient x1="18.7434006%" y1="78.52791%" x2="79.2866258%" y2="35.2720826%" id="linearGradient-4">
            <stop stop-color="#FFFFFF" stop-opacity="0.7" offset="1%"></stop>
            <stop stop-color="#FFFFFF" offset="100%"></stop>
        </linearGradient>
        <path d="M25.4634449,22.9960976 C25.4634449,25.9676801 23.0699786,28.3847615 20.0985366,28.4136585 L9.35121951,28.4136585 C6.71032163,28.412907 4.4668381,26.4813356 4.07368994,23.8698654 C3.68054177,21.2583952 5.25589082,18.7519113 7.7795122,17.9736585 C8.06032034,15.2312576 10.3527469,13.1352168 13.1092683,13.1004878 C15.7537156,13.0384597 18.0341583,14.9469686 18.4390244,17.5609756 L20.1073171,17.5609756 C23.0821783,17.594712 25.4732495,20.0210613 25.4634449,22.9960976 Z" id="path-5"></path>
        <filter x="-60.6%" y="-71.8%" width="221.2%" height="269.8%" filterUnits="objectBoundingBox" id="filter-6">
            <feOffset dx="0" dy="2" in="SourceAlpha" result="shadowOffsetOuter1"></feOffset>
            <feGaussianBlur stdDeviation="4" in="shadowOffsetOuter1" result="shadowBlurOuter1"></feGaussianBlur>
            <feColorMatrix values="0 0 0 0 0   0 0 0 0 0   0 0 0 0 0  0 0 0 0.2 0" type="matrix" in="shadowBlurOuter1"></feColorMatrix>
        </filter>
    </defs>
    <g id="Page-1" stroke="none" stroke-width="1" fill="none" fill-rule="evenodd">
        <g id="Desktop" transform="translate(-516.000000, -633.000000)" fill-rule="nonzero">
            <g id="Group-2" transform="translate(410.000000, 537.000000)">
                <g id="Group-4" transform="translate(26.000000, 75.000000)">
                    <g id="Group" transform="translate(87.000000, 0.785714)">
                        <g id="rainsun" transform="translate(0.000000, 22.214286)">
                            <circle id="Oval" fill="#F4D35E" cx="25.937561" cy="9.2897561" r="8.67512195"></circle>
                            <g id="Path">
                                <use fill="black" fill-opacity="1" filter="url(#filter-3)" xlink:href="#path-2"></use>
                                <use fill="url(#linearGradient-1)" xlink:href="#path-2"></use>
                            </g>
                            <g id="Path">
                                <use fill="black" fill-opacity="1" filter="url(#filter-6)" xlink:href="#path-5"></use>
                                <use fill="url(#linearGradient-4)" xlink:href="#path-5"></use>
                            </g>
                            <path d="M11.5112195,35.675122 C11.0506697,36.2781733 10.1927764,36.4029578 9.5795122,35.9560976 C9.06741734,35.3944051 9.10265436,34.5252253 9.65853659,34.0068293 C10.3125711,33.5232838 11.0510498,33.1659554 11.8360976,32.9531707 C11.967596,32.8998866 12.1180022,32.926768 12.222903,33.0223026 C12.3278037,33.1178372 12.368594,33.2650812 12.3278049,33.4009756 C12.1983987,34.2029514 11.9215314,34.9740119 11.5112195,35.675122 L11.5112195,35.675122 Z" id="Path" fill="#3083DC" opacity="0.9"></path>
                            <path d="M26.3414634,34.2439024 C26.0752213,34.6756935 25.5766925,34.906562 25.0751795,34.8303179 C24.5736666,34.7540738 24.1662729,34.3854796 24.0403829,33.8940733 C23.9144928,33.4026671 24.0944813,32.8835954 24.497561,32.5756098 C25.1525432,32.0936344 25.8907172,31.7364534 26.675122,31.5219512 C26.8075307,31.4636629 26.9617912,31.4881787 27.0696057,31.5846444 C27.1774203,31.68111 27.2188725,31.8317056 27.1756098,31.9697561 C27.0367311,32.7718391 26.7541479,33.5422502 26.3414634,34.2439024 L26.3414634,34.2439024 Z" id="Path" fill="#3083DC" opacity="0.9"></path>
                            <path d="M19.3170732,38.52 C19.1410662,38.8370279 18.7882828,39.0132535 18.4290937,38.9635715 C18.0699045,38.9138895 17.7782012,38.6485205 17.6948568,38.2956198 C17.6115124,37.9427192 17.7536723,37.5748849 18.0526829,37.3697561 C18.5025287,37.0339798 19.0120401,36.7866731 19.5541463,36.6409756 C19.6442375,36.5996261 19.7503482,36.6164255 19.8232607,36.6835818 C19.8961732,36.750738 19.9216227,36.8551125 19.8878049,36.9482927 C19.7985446,37.503542 19.6048851,38.0368505 19.3170732,38.52 Z" id="Path" fill="#3083DC" opacity="0.9"></path>
                            <path d="M18.2634146,34.1385366 C17.8712641,34.6552128 17.1383774,34.7643661 16.6126829,34.3843902 C16.1762679,33.9010033 16.2115543,33.1560681 16.6917073,32.7160976 C17.2510569,32.3028408 17.886693,32.0044201 18.5619512,31.8380488 C18.6736022,31.7855987 18.8057952,31.8049925 18.8976759,31.8873022 C18.9895566,31.969612 19.0233166,32.0988844 18.9834146,32.2156098 C18.8645263,32.8956311 18.6203873,33.547661 18.2634146,34.1385366 L18.2634146,34.1385366 Z" id="Path" fill="#3083DC" opacity="0.9"></path>
                        </g>
                    </g>
                </g>
            </g>
        </g>
    </g>
</svg>